<svg xmlns="http://www.w3.org/2000/svg" xmlns:xlink="http://www.w3.org/1999/xlink" width="265.53" height="265.516" viewBox="0 0 265.53 265.516"><defs><linearGradient id="a" x1="0.065" y1="0.895" x2="1.086" y2="-0.065" gradientUnits="objectBoundingBox"><stop offset="0" stop-color="#749a77"/><stop offset="0.339" stop-color="#0b4d0f"/><stop offset="1" stop-color="#b5cfb6"/></linearGradient><linearGradient id="b" x1="-0.116" y1="1" x2="1.197" y2="-0.228" gradientUnits="objectBoundingBox"><stop offset="0" stop-color="#749a77"/><stop offset="0.37" stop-color="#0b4d0f"/><stop offset="1" stop-color="#b5cfb6"/></linearGradient><linearGradient id="c" x1="0.078" y1="1" x2="1.218" y2="-0.295" gradientUnits="objectBoundingBox"><stop offset="0" stop-color="#749a77"/><stop offset="0.307" stop-color="#0b4d0f"/><stop offset="1" stop-color="#b5cfb6"/></linearGradient><linearGradient id="d" x1="-0.305" y1="1.232" x2="1.214" y2="-0.228" gradientUnits="objectBoundingBox"><stop offset="0" stop-color="#749a77"/><stop offset="0.474" stop-color="#0b4d0f"/><stop offset="1" stop-color="#b5cfb6"/></linearGradient><linearGradient id="e" x1="0" y1="1" x2="1.436" y2="0" xlink:href="#a"/></defs><path d="M265.51,128.28a1.06,1.06,0,0,0-.34-.74l-2.91-2.72,2.56-3.06a1.067,1.067,0,0,0-.13-1.49l-11-9.2,7.11-12.43a1.063,1.063,0,0,0-.39-1.44l-3.46-2,1.79-3.57a1.05,1.05,0,0,0-.47-1.42l-12.81-6.42,4.06-13.74a1.06,1.06,0,0,0-.09-.8,1,1,0,0,0-.63-.5l-3.8-1.1.92-3.87a1.07,1.07,0,0,0-.79-1.28l-9.54-2.26,1.08-9.76a1.07,1.07,0,0,0-.22-.77,1,1,0,0,0-.71-.38l-4-.44.22-4a1,1,0,0,0-.27-.76,1.06,1.06,0,0,0-.73-.35l-4-.22v-4a1.05,1.05,0,0,0-1.06-1.06h-9.8l-1.2-9.74a1.05,1.05,0,0,0-1.17-.92l-4,.49-.7-3.93a1.06,1.06,0,0,0-1.22-.85L193.76,26.1l-5-13.43a1.06,1.06,0,0,0-1.36-.62l-3.74,1.38-1.59-3.67a1.06,1.06,0,0,0-1.39-.55l-13.14,5.7L159.64,3a1.06,1.06,0,0,0-1.47-.3l-3.32,2.2-2.39-3.2A1.05,1.05,0,0,0,151,1.49l-11.47,8.57L129,.29a1.06,1.06,0,0,0-1.49,0L124.78,3.2,121.77.69a1.05,1.05,0,0,0-1.49.13l-9.19,11L98.66,4.7a1.05,1.05,0,0,0-1.44.39l-2,3.46L91.67,6.76a1.06,1.06,0,0,0-1.42.47L83.83,20,70.09,16a1,1,0,0,0-1.31.72l-1.13,3.83-3.89-.92a1,1,0,0,0-1.27.78l-2.26,9.55-9.76-1.08a1,1,0,0,0-1.16.93l-.44,4-4-.22a1,1,0,0,0-1.11,1l-.22,4h-4a1.05,1.05,0,0,0-1.06,1.06v9.81l-9.73,1.2a1.05,1.05,0,0,0-.92,1.18l.49,4-3.93.7a1.06,1.06,0,0,0-.85,1.22l2.53,14.1-13.44,5A1.06,1.06,0,0,0,12,78.08l1.39,3.75L9.77,83.41a1.06,1.06,0,0,0-.55,1.39l5.7,13.14L3,105.86a1,1,0,0,0-.29,1.46l2.21,3.33L1.71,113a1.05,1.05,0,0,0-.21,1.48L10.07,126,.29,136.46a1.05,1.05,0,0,0,0,1.49l2.92,2.73L.69,143.74a1.05,1.05,0,0,0,.13,1.49l11,9.19L4.7,166.84a1.06,1.06,0,0,0,.39,1.44l3.47,2-1.79,3.58a1.06,1.06,0,0,0,.47,1.42L20,181.68l-4,13.73a1,1,0,0,0,.71,1.31l3.82,1.13-.92,3.88A1.06,1.06,0,0,0,20.4,203l9.55,2.26L28.86,215a1.06,1.06,0,0,0,.93,1.17l4,.44-.22,4a1.06,1.06,0,0,0,1,1.12l4,.22v4A1.05,1.05,0,0,0,39.58,227h9.8l1.2,9.74a1.06,1.06,0,0,0,1,.93h.13l4-.49.7,3.93a1,1,0,0,0,1,.87h.18l14.1-2.53,5,13.42a1.1,1.1,0,0,0,1,.69,1.13,1.13,0,0,0,.36-.06l3.73-1.38,1.59,3.66a1,1,0,0,0,.58.56,1.13,1.13,0,0,0,.39.07,1.09,1.09,0,0,0,.42-.09l13.15-5.71,7.93,11.93a1.06,1.06,0,0,0,.67.45h.2a1,1,0,0,0,.59-.18l3.32-2.2,2.4,3.21a1.08,1.08,0,0,0,.7.42h.14a1.05,1.05,0,0,0,.64-.21l11.5-8.6,10.46,9.78a1.07,1.07,0,0,0,.73.29h0a1.06,1.06,0,0,0,.74-.33l2.72-2.91,3.07,2.57a1.06,1.06,0,0,0,.68.25h.09a1,1,0,0,0,.72-.37l9.19-11,12.43,7.11a1.08,1.08,0,0,0,.52.13,1,1,0,0,0,.28,0,1.09,1.09,0,0,0,.64-.49l2-3.47,3.56,1.79a1.1,1.1,0,0,0,.48.11,1,1,0,0,0,.33-.05,1.06,1.06,0,0,0,.62-.53l6.41-12.8,13.74,4.06a1.1,1.1,0,0,0,.3,0,1.07,1.07,0,0,0,.51-.13,1,1,0,0,0,.51-.63l1.13-3.82,3.88.92h.24a1.05,1.05,0,0,0,1-.81l2.26-9.56,9.76,1.08h.11a1.06,1.06,0,0,0,1.06-.94l.44-4,4,.22h.07a1,1,0,0,0,.7-.27,1.07,1.07,0,0,0,.36-.73l.22-4h4a1.05,1.05,0,0,0,1.06-1.06v-9.81l9.74-1.2a1.07,1.07,0,0,0,.93-1.18l-.49-4,3.92-.7a1,1,0,0,0,.85-1.23l-2.53-14.1,13.44-5a1.08,1.08,0,0,0,.59-.56,1.06,1.06,0,0,0,0-.81l-1.38-3.74,3.65-1.59a1,1,0,0,0,.56-.58,1.07,1.07,0,0,0,0-.81l-5.7-13.13,11.93-7.93a1.06,1.06,0,0,0,.3-1.46l-2.21-3.32,3.19-2.39a1.08,1.08,0,0,0,.41-.69,1,1,0,0,0-.2-.79l-8.58-11.48L265.22,129A1.06,1.06,0,0,0,265.51,128.28Zm-3-7.06-1.8,2.15-9.15-8.56,1.07-1.87Zm-9.83,18.13-1.39,1.49-1.08-1.62,1.25-1.5Zm-4.74,27.43-1.69,1.12-.68-1.83,1.56-1.16ZM237,192.37l-1.91.71-.24-1.94,1.78-.77ZM234.82,208l-7.84,1.4V198.3l6.36-2.35Zm-10,6.19-2.24.28.12-2.15,2.13-.38Zm-4.93,10.63h-2.55l.85-7.68,2.14-.26Zm-5.19,4.66-8-.44.5-2.1H215Zm-11.11,3.73-2.24-.25.61-2.06,2.15.12Zm-23.06,9.69-2-.58,1-1.69,1.9.45ZM153.94,251l-1.78-1,1.34-1.43,1.76.88Zm-29.28.29,1.62-1.08,1.51,1.26-1.63,1.22Zm-27.06-5,1.83-.68,1.17,1.57-1.87.81ZM72.41,235.1l1.93-.24.78,1.8-2,.36ZM56,227H67.15l2.35,6.35-12.06,1.48Zm-5-4.38,2.16.12.38,2.13H51.25ZM12.82,126.15l1.4-1.5,1.08,1.63-1.3,1.5Zm4.74-27.44,1.7-1.13.68,1.84-1.56,1.17ZM28.48,73.12l1.92-.71.24,1.94-1.8.78ZM30.7,57.44,38.52,56V67.15L32.18,69.5Zm9.94-6.19L42.88,51l-.12,2.16-2.12.38Zm4.92-10.62h2.56l-.85,7.68-2.15.26ZM50.76,36l8,.44-.5,2.11H50.48Zm11.1-3.74,2.26.25-.62,2.08-2.17-.12Zm23.06-9.67,2,.58-1,1.7L84,24.39Zm26.65-8,1.77,1L112,17l-1.74-.87Zm29.27-.31-1.63,1.08L137.72,14l1.63-1.22Zm27.07,5.05-1.83.68-1.18-1.57,1.87-.81ZM193.09,30.4l-1.94.24-.78-1.8,2-.36Zm16.37,8.12h-11.1L196,32.17l12-1.48Zm5.07,4.36-2.17-.12L212,40.63h2.28ZM250,113.34,248.55,112l.87-1.74,1.57,1.31Zm-1,24L243.43,129l.67-1.16,6.07,8.12Zm.82,5-6.92,7.4-.53-1.22,6.44-7.7Zm-5.37,26.69-8.45,5.7-.24-1.32,8-6Zm-8.16,19.11-1.67.72-1.22-10,1.11-.74Zm-3.2,5.61L227,196.09v-1.52l5.87-2.55Zm-12.36,16.74-1.79.32,1.1-10,1.25-.46Zm-4.4,4.71-6.45.79.35-1.48,6.3-1.13Zm-10.7,9.58h-1.82l1.81-6.13,1.51-.18Zm-5.17,3.87-10.11-.56.6-1.2h10Zm-14.06,2.61-1.38-.15.66-1.15,1.34.07Zm-21.77,6.88-1.16-.34.79-.84,1.14.27Zm-25.14,4.5-1.05-.6,1-.64,1,.52ZM114,241.31l-.88-.82,1.08-.4.89.75Zm-24.48-7.23-.67-1,1.14-.14.7.93ZM68.14,223.56l1.33.07.53,1.23H68.62ZM54.6,218.91l10,1.1.47,1.26-10.12-.56Zm-38.08-90.8,5.55,8.35-.67,1.17-6.06-8.11Zm-.82-5.05,6.92-7.4.53,1.23-6.43,7.69Zm5.36-26.69,8.44-5.61.24,1.33-8,6Zm8.16-19.11,1.68-.73,1.22,10-1.12.7Zm3.22-5.61,6.08-2.25v1.53l-5.86,2.54ZM44.77,54.92l1.81-.32-1.1,10-1.26.4Zm4.41-4.71,6.45-.79-.35,1.49L49,52Zm10.69-9.57h1.84L59.9,46.76l-1.52.19Zm5.18-3.87,10.11.56-.6,1.2h-10Zm14.07-2.62,1.39.15-.67,1.17-1.35-.07Zm21.77-6.86,1.15.34-.79.85-1.12-.27ZM126,22.78l1,.6-1,.64-1-.52Zm25.49,1.4.88.83-1.09.4-.9-.75ZM176,31.42l.67,1-1.15.14-.7-.93Zm21.36,10.52L196,41.86l-.53-1.23h1.39Zm13.54,4.65-10-1.1-.47-1.27,10.11.56Zm36,63.91-7.33-6.85.38-1.28,7.77,6.5ZM242.72,126l-.6,1-.64-1,.52-1Zm-1.41,25.49-.81.87-.4-1.08.74-.88ZM234.09,176l-1,.66-.14-1.15.92-.69Zm-1.5,13.83-5.6,2.43v-9l4.43-2.95Zm-14.51,9.56-4.67,1.73.17-.73,4.61-2Zm-9.6,13.38-1.17.21,2.44-8.25.7-.26Zm-4.5,4-8.46,1,.33-.67,8.46-1.52Zm-14.34,8.06h-1l2.49-4.35.74-.09Zm-5.16,3-8.06-.44.36-.43H185Zm-12.75,1.87-.59-.06.38-.4h.57Zm-20.81,4.45-.37-.11.3-.2.37.09Zm-23.84,1.45-.33-.19.34-.13.33.16Zm-23.52-4.06-.28-.26h.35l.28.24Zm-20.18-6.7-.32-.48h.55l.34.45Zm-12.9-4.2,8.17.9L79,222l-8.08-.45Zm-6.1-7.25.73.17,2,4.59-1-.11Zm-41.6-73.93.6-1,.64,1-.52,1ZM24.18,114l.82-.87.4,1.09-.74.89Zm7.24-24.5,1-.67L32.56,90l-.93.7Zm1.52-13.84,5.59-2.43v9L34.1,85.18Zm14.5-9.55,4.66-1.73-.17.73-4.6,2ZM57,52.73l1.19-.21-2.44,8.25-.71.26Zm4.52-4,8.46-1-.34.68-8.46,1.52Zm14.34-8.06h1L74.4,45l-.76.09Zm5.16-3,8.07.44-.36.43h-8.2ZM93.8,35.76l.57.06-.39.42h-.56Zm20.78-4.44.36.11-.31.2-.35-.08Zm23.83-1.46.33.19-.34.13-.34-.17Zm23.53,4.07.28.26h-.36l-.28-.24Zm20.18,6.7.32.48h-.56l-.34-.45ZM195,44.83l-8.16-.9-.32-.48,8.07.44Zm6.11,7.26-.73-.17-2-4.6,1,.11ZM237.87,102l-.84-.79.26-1.12.91.76ZM241,129.11l-4,7-.22-.52,3.68-7.34ZM239.26,149l-2.85-7.7.27-.48,3.22,7.41Zm-.37,5.1-5.52,5.9-.1-.55,5.27-6.3Zm-5.43,18.39-.8.6-1-8.16.38-.4ZM231.13,178,227,180.72V180l4-3Zm-19.7,21,1.51-5.11-1.17,5ZM208,203.11l-4.8,1.78,4.91-2.13Zm-13.59,12.18-.37.07,2.69-4.7Zm-4.63,3.26-5.09.63,5.28-.95Zm-14.17,6.32,1.6-1.72-1.44,1.72Zm-5,2.23-2-.11h2.13Zm-20.19,4.51-5.68-1.34,2.54-1.1,5.85.65ZM101.81,227h5.89l2.39,1.36-5.8.71Zm-17.19-4.75,2.27.25-2.17-.12Zm-4.75-2.65-1.09-1.65L80,219.59Zm-13.39-8.15L71.64,213l-5-1.19ZM62.39,208l-1.78-4.81,2.13,4.92ZM24.55,136.38l4-7,.22.52-3.67,7.33Zm1.7-19.9,2.85,7.7-.28.49-3.22-7.41Zm.37-5.1,5.52-5.9.1.56L27,112.34ZM32,93l.81-.61,1,8.15-.39.42Zm2.35-5.49,4.13-2.75v.76l-4,3Zm19.69-21L52.5,71.82l1.23-5.19Zm3.41-4.09,4.89-1.81-5,2.17ZM71.07,50.21l.38-.07L68.67,55Zm4.64-3.26,5.22-.64-5.4,1Zm14.17-6.31-1.45,1.55,1.3-1.55Zm5-2.23,2.13.12H94.74ZM115,33.9l5.68,1.34-2.53,1.1-5.86-.65Zm48.65,4.62h-5.9l-2.39-1.37,5.8-.71Zm17.19,4.75L178.57,43l2.21.12Zm4.75,2.64,1.18,1.77-1.33-1.79ZM199,54.07l-5.23-1.54,5.08,1.2Zm4.1,3.41,1.79,4.84-2.15-4.95Zm32.14,42.09-3.66-3.42.08-.74,3.8,3.18Zm-1.09,15-.11.36-.2-.3.08-.36Zm1.46,23.84-.18.31-.13-.34.16-.31Zm-4.06,23.52-.25.26v-.36l.23-.27Zm-.86,12.61-3.69,2.8v-7.4l2.79-3Zm-8.47,6.33.22-2-.11,1.91Zm-190.91-30,.11-.37.2.3-.09.37Zm-1.46-23.83.19-.32.13.34-.16.33Zm4.06-23.53.26-.28v.37l-.24.28Zm.88-12.62,3.71-2.77v7.39l-2.78,3Zm8.45-6.32L43,86.9l.12-2.18Zm186.41,9.74-.42-.39v-.55l.45.38Zm3.61,23.21-.57,1.92.48-2Zm1,18.1-.69-1.87.76,1.74Zm-.24,5.45-1,1.79,1-1.94ZM230.92,159l-.24-2,.34,1.88Zm-1.49,5.24-1.36,1.46,1.35-1.61ZM32.22,147.91l.58-2L32.3,148Zm-1-18.09.76,2.06L31.12,130Zm.24-5.45,1-1.81-1,2Zm3.17-17.85.28,2.26-.38-2.13Zm1.49-5.25,1.46-1.56-1.44,1.72Zm191.16-9.18-.26-.24v-.36l.28.23Zm-66.7,132.77h-3.39l.58-.25,3.92-.48ZM93.95,220.4l3.85.91.53.3L95,221.24Zm11-179.77h3.4l-.59.25-3.92.48Zm66.64,4.47-3.84-.91-.57-.33,3.38.37ZM224.9,89.86l-1.51-1.41,1.51,1.27ZM185.94,208l-9,6-2.56,1.11,6-16.25,17.2-.61-3.22,3.44Zm-106.06.62-7.14-6,17.13-.61,7.23,15.87-7.89-4ZM79.69,57.4l8.86-5.89,2.57-1.12L85.07,66.66l-17.21.61,3.2-3.42Zm105.9-.55,7.16,6-17.12.61L168.4,47.59l7.93,4Zm42,92.27-.6,1.2v-3.95l.19-.63Zm-20.05,11.61-17,7.75.66,18.68-18.68.66L166,205.36l-17.67-6.58-12.88,13.77L121.8,199.78l-17,7.75-7.75-17-18.67.66-.66-18.68L60.16,166l6.58-17.67L53,135.43l12.76-13.65-7.74-17L75,97l-.66-18.69L93,77.67l6.53-17.53,17.67,6.58L130.08,53l13.65,12.78,17-7.75,7.75,17,18.69-.66L187.84,93l17.51,6.52-6.56,17.66,13.76,12.87L199.78,143.7Zm-40.35,57.49L157,222l-10.44,1.87-7.08.87L151.42,212l16.23,6Zm-37,6.64-5-.27-8.29-.92-8-1.88-5.07-1.5,15.65-7.13,12.5,11.7ZM37.93,116.36l.59-1.18v4l-.18.6Zm2.71,40.84.25.57.48,3.9-.72-1.09Zm6.64,10L43.51,157l-1.87-10.4-.87-7.11,12.77,11.93-6.05,16.26Zm-6.64-35.11V130l.27-4.89.89-8.08,1.87-7.9,1.54-5.21,7.12,15.65Zm-3.14,3.35-.07.07v-.2Zm-.23.77.27.25-.38,3.41-.46-1.25ZM57.52,186l-6-9.08-1.09-2.51,16.28,6.05.61,17.22-3.43-3.21ZM98.34,47.26l10.14-3.75L119,41.63l7.08-.87L114.1,53.53,97.85,47.48Zm37-6.63,5.08.28,8.06.89,8,1.89,5.13,1.52-15.65,7.13-12.51-11.7ZM224.9,108.3l-.23-.54-.48-3.93.72,1.08ZM208.07,79.65,214,88.54l1.12,2.59-16.25-6.05-.61-17.21,3.4,3.17ZM212,114.09l6-16.24.25.58,3.71,10,1.92,10.7.84,6.86Zm12.88,19.34v1.87l-.29,5.24-.87,7.85-1.9,8-1.51,5.11-7.12-15.62Zm3.14-3.35.06-.06v.16Zm.23-.79L228,129l.38-3.4.46,1.23Zm-9.48-38.85-2.35-3.14L215,83.56l3,2.8ZM62.85,72.74l.61,17.13L47.58,97.1l3.93-7.84,5.35-9.35ZM46.74,175.07l2.37,3.17,1.37,3.7-3-2.81Zm155.92,17.67-.61-17.12,15.86-7.22L214,176.26l-5.35,9.36ZM44.19,97.81l-.32.56L44.24,95l.86-1ZM40.64,166.9l1.64,2.19.72,5.85-2.35-2.2Zm180.67.81.33-.58-.37,3.38-.86,1Zm3.56-69.12-1.63-2.18-.72-5.86,2.35,2.19ZM206.7,71.75l-3-2.53-2.18-3.28,3.57,2ZM130.07,37.5l-.07-.07h.19ZM38.52,107.71l-1.36,2.38-.71-5.79,2.07-2.48ZM35.1,122l1,5.42-1.56,5.27-2-5.48Zm.15,22.76,1.1,2.53-.65,5.84-1.79-2.7Zm3.28,23.71v2.28l-.12-.11Zm2.12,7.15,1.64,1.54-1.64-1.38ZM58.8,193.74l3.06,2.56L64,199.56l-3.59-2.06ZM135.44,228l.06.06h-.17ZM227,157.79l1.37-2.4.71,5.8L227,163.68Zm3.42-14.3-1-5.42,1.56-5.28,2,5.47Zm-.15-22.77-1.09-2.51.65-5.86L231.6,115ZM227,96.8V94.73l.11.1ZM224.86,87l-3.11-2.6-.9-7.34,4,2.29Zm-5.64-5.86-1-5.59.34.19Zm-2.28-.77-4.51-3.77-2-5.53,5.45,3.12Zm-26.27-24-3.52-1.76-2.89-2.7,3.94,1.16ZM150.33,38.52h-3.95l-.61-.18,3.37-.41Zm-21-1.25-.25.27-3.42-.38,1.25-.46Zm-38.9,9.47-3.17,2.37-3.7,1.37,2.82-3ZM71.77,58.8l-2.52,3L66,64l2-3.56Zm-15.39,16-1.77,3.53-2.69,2.88,1.17-3.95ZM33.24,153.26l1.3,2-1.34-1.79Zm3.45,10.09-.3,5.42-.27-.25Zm1.56,10.06.27.25V174l-.29-.24Zm2.39,5.15,3.12,2.61.9,7.33-4-2.3Zm5.67,6.07,1,5.36-.32-.19Zm2.24.55L53.08,189l2,5.51-5.46-3.12Zm26.27,24,3.54,1.77,2.88,2.69-4-1.17ZM115.18,227h3.93l.61.18-3.36.41Zm21,1.25.26-.27,3.4.38-1.26.47Zm38.88-9.48,3.17-2.37,3.67-1.36-2.81,3Zm18.66-12.06,2.53-3,3.27-2.17-2,3.56Zm15.37-16,1.78-3.55,2.69-2.87-1.17,4Zm23.14-78.46L231,110.39l1.25,1.68Zm-3.47-9.87.31-5.64.28.26Zm-1.38-13.27-.42-.36V80.52l.87.5ZM224.84,76.9l-4.33-2.48-.09-.74,4.42,2.22Zm-6.62-3.79-.5-.29-.1-.55.53.27Zm-2.89-1.65-4.68-2.68,4.62,2.31ZM46.82,86.69l-1.88,2,.64-5.81L48.17,81Zm-6.18,5v-5.1l.29-.22Zm-6.68,24-3.49,6.11-2.65-7.17,4.91-5.87Zm-1.28,23.2-2,6.74-4.24-6.37,3.42-6.83ZM35,159.37l-.81,7.35-3.39-3.17,1.76-7.45Zm.82,11.76.41.38v.57l-.44-.37Zm2.26,5.28.44.36V185l-.88-.5Zm2.55,12.21L45,191.1l.09.75-4.43-2.22Zm6.63,3.79.49.28.1.56-.52-.26Zm2.88,1.65,4.77,2.73-4.7-2.36Zm168.54-15.24,1.89-2-.64,5.82-2.6,1.95Zm6.18-5.08v5.19l-.3.22Zm6.68-23.91,3.5-6.11,2.66,7.18-4.91,5.87Zm1.28-23.2,2-6.75,4.24,6.37-3.43,6.84Zm-2.32-20.49.81-7.36,3.38,3.16-1.76,7.45ZM230,91.27l-.59-.49.47-8.59,1.05.6Zm-2-12.61-1-.57V76.94l1.06.53Zm-3.12-5.15-4.73-2.37-1.1-9,5.83,1.72Zm-7-3.51-.69-.34-1.52-8.47,1.16.34Zm-3-1.52-6.6-3.31-2.57-6.94,7.75,2.29Zm-12.2-6.12-5.26-2.64-3.26-4.91,6,1.78ZM184.55,48.18l-5.73-1.35-2-1.89,5.8.64ZM138.08,36.07l-5.28-1.56,5.48-2,5.22,2.62ZM98.61,40.63l-2.2,1.65L90.56,43l2.21-2.36ZM80.35,48.55l-3.78,4.52-5.52,2,3.12-5.46Zm-18,14.33-2.64,5.26-4.9,3.26,1.78-6ZM45.89,80v-.16l1.84-1.22Zm-2.31,1.73-.3.22v-.38l.32-.21Zm-2.5,1.87-.44.33v-.59l.47-.32ZM25.37,141.43l4.55,6.84-.16.55-4.84-6.48Zm5.55,12.47-1.89,8-.73-.69,2.29-7.75Zm-.67,12,3.66,3.42-.08.75L30,166.9Zm5.24,8.32.58.48-.47,8.58-1-.59Zm2,12.6,1,.58v1.16L37.45,188ZM40.64,192l4.74,2.38,1.1,8.95-5.84-1.73Zm7,3.51.67.34,1.52,8.46L48.69,204Zm3,1.52,6.62,3.31,2.57,6.93L52.1,205Zm12.2,6.11,5.29,2.65,3.26,4.9-6-1.79ZM81,217.33l5.74,1.36,2,1.86-5.81-.64Zm46.47,12.1,5.26,1.55-5.47,2-5.2-2.61Zm39.48-4.57,2.2-1.64,5.83-.72-2.21,2.36Zm18.26-7.92,3.78-4.52,5.51-2-3.12,5.46Zm18-14.33,2.63-5.26,4.9-3.26-1.78,6Zm16.46-17.13v.15l-1.69,1.12Zm2.32-1.73.28-.21v.37l-.3.2Zm2.49-1.86.45-.34v.57l-.48.32Zm15.72-57.83-4.54-6.83.16-.54,4.84,6.47Zm-5.55-12.47,1.89-8,.73.68L234.91,112ZM232,92.9l1-9,5.29,3L236,96.3Zm-.75-12.39L230,79.84l.07-1.33,1.25.63Zm-3-5.34-1.19-.6v-10l1.75.52Zm-3.31-13.46-6.11-1.81-.19-1.51,6.3,1.49Zm-8.32-2.46-1.3-.38L215,57.55l1.37.32ZM213,58.2l-8.24-2.44-.26-.71,8.29,2ZM202.2,55l-.54-.16-.22-.52.56.13Zm-4.38-3.7-7.19-1.7-2.26-3.4,7.6.84Zm-13.7-7.69h-.36l-.22-.3h.38Zm-5-2.7-5.43-.3h5.21Zm-9.19-2.41-3-2.79,7.59-.93,2.78,3.72Zm-4.19-1-1.68-1.4h.16ZM159,34.59l-2.24.27,2.11-.38ZM149.83,34l-6.11-3.5,7.18-2.66,5.87,4.91Zm-6.89-1.51-1.95-1,.15-.05Zm-7.24-1.27-2.19.81,2-.88Zm-9.07,1.5-6.75-2,6.37-4.24,6.84,3.43Zm-7,.14-2.2-.52.13-.09Zm-7.42.41-1.82,1.21,1.67-1.25ZM106.13,35l-7.34-.81L102,30.81l7.44,1.76Zm-3.85,1.69-5.55-.31.26-.28ZM92.1,38.25l-.25.27h-.36l.24-.29ZM87,40.63l-2.62,3.13-7.34.9,2.3-4ZM73.1,47.27l-.28.49-.56.1.26-.52Zm-4.62,3.41-3.31,6.61-6.93,2.56,2.29-7.76ZM55,63.3l-.16.54-.52.23.13-.56Zm-3.7,4.38-1.7,7.19-3.4,2.26.84-7.6Zm-7.39,11-.47.32.44-8.07.93-.4Zm-2.67,1.77-.62.41V72.31l1.09-.47Zm-9.59,22.47-5.87,6.28-3.33-9,7.69-5.75ZM27.51,127l-4.27,7.46-5.31-8,6.16-7.36ZM29,151.34l-2.44,8.25-7-6.56,4.3-8.58Zm-1.38,12.13.84.79-.27,1.13-.92-.77Zm5.92,9.15-1,9-5.3-3,2.21-9.33ZM34.3,185l1.16.66L35.38,187l-1.24-.62Zm3,5.35,1.2.6v10l-1.76-.52Zm3.32,13.46,6.12,1.81.19,1.51-6.31-1.49ZM49,206.26l1.29.38.24,1.32-1.35-.32Zm3.55,1,8.26,2.44.26.7-8.3-2Zm10.79,3.19.53.16.22.51L63.5,211Zm4.37,3.7,7.21,1.71,2.25,3.38-7.62-.84Zm13.72,7.68h.35l.22.3h-.37Zm5,2.7,5.41.3H86.59Zm9.2,2.41,3,2.78-7.6.93L88.17,227Zm4.27,1.1,1.59,1.33h-.15Zm6.67,2.83,2.24-.28-2.12.38Zm9.17.63,6.1,3.49-7.17,2.66-5.86-4.9Zm6.86,1.49,2,1-.15.06Zm7.28,1.28,2.09-.77-1.95.85Zm9.06-1.49,6.75,2L139.26,239l-6.84-3.43Zm7.06-.12,2.11.5-.13.09Zm7.33-.44,2-1.31-1.8,1.34Zm6.12-1.78,7.33.81-3.18,3.4-7.43-1.76Zm4.11-1.67,5.28.29-.25.26Zm9.91-1.57.25-.26H174l-.24.28Zm5.14-2.38,2.61-3.12,7.33-.9-2.3,4Zm13.88-6.64.28-.48.55-.1-.26.51Zm4.61-3.41,3.31-6.61,6.93-2.56L205,213.39Zm13.46-12.63.16-.53.51-.22L211,202Zm3.69-4.37,1.7-7.18,3.41-2.26-.84,7.6Zm7.4-11,.46-.3-.44,8.06-.91.4Zm2.66-1.77.62-.42v8.52l-1.1.48Zm9.59-22.47,5.88-6.28,3.34,9L235.43,171Zm4.1-23.99,4.27-7.47,5.32,8-6.16,7.37Zm-1.49-24.38,2.44-8.26,7,6.56-4.3,8.59Zm1.35-16.35,2.31-9.76,1.58.9-2.87,9.71Zm.9-13-5.54-3.17.17-1.51,5.8,2.91Zm-7.14-7.93-1.37-.69.58-10.54,2,.58Zm-2.76-14L227,62.33v-2l2,.47Zm-4-5.17-6.57-1.55-.83-6.73,7.4.82Zm-8.77-2.07-1.5-.35L213.47,49l1.83.2Zm-3.73-.88-8.77-2.07-1.85-5,9.54,1.05Zm-13.79-9.53-1.15-.13L197,44l1.19.07Zm-4.91-3.49-8.59-.47-.42-.63h8.53Zm-10.41-3.21-2.94-4.43,9.53-1.17,2.43,5.6Zm-2.53,0H180l-3-4,1-.12Zm-7.62-5.67-8.15,1-.41-.39,8-1.42Zm-10.48-1.18-6.29-5.88,9-3.33,5.75,7.69Zm-2.6.46-.55.1L153.17,27l.95-.35Zm-11-5.89-7.7,2.85-.5-.28,7.42-3.22Zm-10.49,1.26-7.47-4.27,8-5.32,7.36,6.16Zm-2.42,1-.52.22-7.34-3.68.84-.56Zm-12.06-3.2-6.84,4.55-.54-.16,6.48-4.84ZM114.17,29l-8.25-2.44,6.56-7,8.58,4.3Zm-2.11,1.58-.45.34-8-1.89.69-.74Zm-12.47-.34L96.17,33.9l-.74-.08L98.61,30Zm-6.69,3.3-9-1,3-5.3,9.34,2.21Zm-1.62,1.94-.49.58L82.2,35.6l.6-1Zm-12.6,2-.58,1H76.93l.54-1.07ZM73.52,40.6l-2.38,4.75-8.95,1.1,1.73-5.85ZM59.25,49l-.38,1.29-1.33.24.32-1.35Zm-4.5,4.16-2.08,8.78-5,1.85,1.05-9.55ZM45.22,66.92l-.13,1.15L44,68.54l.07-1.2Zm-3.36,2.56L40.64,70V68.62l1.3-.48ZM24.18,110.9l-.91,1-4-9.3,1.46-1.09Zm-1.74,31.66-4.5,9-1.34-1.25,5-8.79ZM18.57,155l7.33,6.85-.38,1.29-7.77-6.5Zm9.09,12.68-2.31,9.76-1.59-.91,2.87-9.71Zm-.9,13,5.55,3.18-.17,1.52-5.81-2.91Zm7.14,7.94,1.36.68-.58,10.53-2-.58Zm2.75,14,1.88.56v2l-2-.47Zm4,5.18,6.58,1.56.82,6.71-7.4-.82Zm8.77,2.08,1.49.35L52,216.5l-1.82-.2Zm3.72.88,8.78,2.08,1.84,5-9.55-1.05Zm13.79,9.52,1.14.13.46,1.07-1.19-.07Zm4.9,3.49,8.6.47.42.62H72.31ZM82.26,227l2.94,4.42-9.54,1.17L73.22,227Zm2.53,0h.75l3,4-1,.12Zm7.61,5.67,8.15-1,.41.39-8,1.43Zm10.49,1.19,6.27,5.86-9,3.33-5.74-7.68Zm2.6-.47.55-.1,6.28,5.26-.94.35Zm11,5.88,7.7-2.85.49.28-7.41,3.22ZM126.95,238l7.47,4.27-8,5.32-7.36-6.16Zm2.42-1.05.52-.23,7.34,3.68-.84.56Zm12.06,3.19,6.83-4.54.55.16-6.47,4.84Zm9.91-3.63,8.24,2.43-6.55,7-8.57-4.3Zm2.11-1.58.45-.34,8,1.89-.69.74Zm12.46.33,3.43-3.67.76.08-3.19,3.82Zm6.7-3.31,8.95,1-3,5.3L169.2,236Zm1.63-1.95.48-.57,8.58.47-.59,1Zm12.59-2,.57-1h1.16l-.56,1Zm5.15-3.12,2.38-4.75,8.95-1.1-1.73,5.85Zm14.26-8.34.38-1.28,1.31-.24-.32,1.35Zm4.49-4.16,2.08-8.77,5-1.85-1.05,9.54Zm9.54-13.79.13-1.15,1.05-.46-.07,1.19Zm3.35-2.55,1.23-.53v1.38l-1.3.48Zm17.69-41.43.91-1,4,9.3L244.81,164Zm1.74-31.65,4.5-9,1.34,1.25-5,8.8Zm-2.42-22.79,3-10.11,10.54,6-5.44,10.86Zm1.71-13.28-1.69-1,.45-1.9,1.82.91Zm-8.73-9,1.22-11,7.63,2.25-2.8,11.82ZM233,64.11l-2.09-.62.12-2.16,2.22.52Zm-3.94-5.41-2.1-.5V50.48l2.54.28Zm-4.22-10.58-7.66-.85-.26-2.16,7.93.44ZM215,47l-2-.22-.35-1.93,2.05.11Zm-4.85-4.4-10.53-.58-.53-1.43h10.7Zm-14.1-4.12h-1.52L192,32.66l1.81-.22ZM189,30.91l-10,1.22L178.26,31l10-1.79ZM177,29.1l-5.84-8.79,11.39-4.21,4.84,11.14Zm-2.26.41-1.32.24-6-8,1.72-.64ZM164,20.7l-9.41,3.48-1-.92,9.29-4Zm-12.08,1-7.71-7.2,10.11-6.72,7.27,9.73Zm-2.11.92-1.23.53-7.7-6.44,1.52-1Zm-12.44-6.1L129,22.07l-1.16-.67L136,15.33Zm-11.52,3.75L116.71,15,125,6.15l9.31,7.79ZM124,21.64l-1.07.8-9-4.5,1.25-1.34Zm-13.52-3.07-6.85,7.33-1.28-.38,6.5-7.77Zm-10.34,6.3L90,21.88l6-10.54,10.86,5.44Zm-1.48,1.76-.86,1-9.76-2.31L89,23.76Zm-13.86.12L81.66,32.3l-1.53-.17L83,26.33Zm-6.94,5.13-11-1.22L69.11,23l11.81,2.79Zm-1,2-.69,1.37-10.53-.58.58-2Zm-14,2.75-.55,1.88h-2l.47-2Zm-5.18,4-1.56,6.59-6.7.78.82-7.42ZM47,50.47l-.21,1.94-1.93.35.11-2ZM42.64,55.3l-.58,10.54-1.42.53V55.66ZM29.1,88.5l-8.79,5.84L16.1,83l11.14-4.84Zm-7.4,25.05-7.2,7.7-6.73-10.1,9.72-7.27Zm-1.44,26.08L15,148.79,6.16,140.5l7.79-9.31Zm-4.73,12.53L17,153.5l-.88,1.75-1.57-1.31Zm9.34,13.19-3,10.11-10.54-6,5.44-10.85Zm-1.72,13.26,1.69,1-.45,1.91-1.82-.91Zm8.74,9-1.22,11L23,196.4l2.79-11.82Zm.6,13.77,2.07.61-.12,2.16-2.2-.52Zm3.93,5.41,2.11.5V215L36,214.73Zm4.23,10.57,7.67.85.26,2.15-7.93-.44Zm9.83,1.09,1.94.21.35,1.93-2-.11Zm4.84,4.4,10.54.58.53,1.43H55.66ZM69.41,227h1.52l2.55,5.86-1.81.22Zm7.12,7.62,10-1.23.74,1.12-10,1.79Zm12,1.81,5.83,8.77L83,249.4l-4.83-11.13Zm2.26-.41,1.31-.24,6,8-1.71.63Zm10.7,8.8,9.42-3.48,1,.92-9.3,4Zm12.08-1,7.7,7.2-10.12,6.73L103.88,248Zm2.11-.92,1.22-.53,7.69,6.44-1.52,1Zm12.43,6.1,8.36-5.56,1.17.67-8.12,6.07Zm11.53-3.74,9.15,5.23-8.29,8.87-9.31-7.79Zm1.85-1.38,1.08-.81,9,4.49-1.25,1.34ZM155,246.93l6.85-7.32,1.3.38-6.5,7.77Zm10.35-6.29,10.11,3-6,10.54-10.85-5.44Zm1.48-1.77.86-1,9.76,2.31-.91,1.59Zm13.86-.13,3.18-5.56,1.51.17-2.91,5.81Zm6.93-5.14,11,1.22-2.26,7.64-11.82-2.8Zm1-2,.68-1.35,10.53.58-.58,1.95Zm14-2.74.55-1.87h1.95l-.47,2Zm5.17-4,1.56-6.59,6.73-.83-.82,7.41ZM218.47,215l.21-1.94,1.91-.34-.11,2Zm4.39-4.83.58-10.53,1.43-.53v10.7ZM236.41,177l8.79-5.84,4.21,11.38-11.14,4.84Zm7.4-25.05,7.21-7.71,6.73,10.12L248,161.62Zm1.44-26.08,5.24-9.16,8.87,8.29-7.8,9.32Zm13.21-27.35-6.4,11.19-1.66-1.39,5.6-11.2Zm-2.08-6.86-1.26,2.52L244.24,88l.61-2.07ZM247.19,70.5l-3.65,12.37-1.92-1,2.89-12.2Zm-3.59-6.19L243,67l-7.88-2.33.26-2.37Zm-9.17-13-.93,8.45-2.33-.55.45-8.21Zm-4.64-5.47-.16,2.82-2.63-.3V45.68Zm-4.93-5.2v2.82L216.67,43l-.29-2.36ZM213,30.09l1,8.44h-2.4l-1.45-8.09Zm-5.78-4.25.5,2.78-12.43,1.53-.75-2Zm-20-11.44,4.47,12.09-2.12.38-5-11.49Zm-6.59-2.82,1.13,2.6L170,18.51l-1.2-1.81ZM158.46,5l7.14,10.73-2,.86-7.5-10ZM151.4,3.81l1.69,2.26L142.66,13l-1.58-1.48Zm-23-1.26,9.41,8.8-1.73,1.29-9.61-8ZM121.23,3l2.16,1.81-8.56,9.15L113,12.87ZM98.53,7.05l11.19,6.4-1.39,1.66L97.13,9.5ZM91.66,9.12l2.53,1.27L88,21.27l-2.09-.62ZM70.51,18.31,82.87,22l-1,1.94L69.71,21Zm-6.2,3.59,2.75.65-2.33,7.88-2.38-.26Zm-13,9.17,8.45.93-.55,2.33L51,33.88Zm-5.47,4.64,2.82.16-.29,2.66H45.68Zm-5.19,4.93h2.81L43,48.84l-2.36.29ZM30.1,52.55l8.43-1V53.9l-8.08,1.45Zm-4.27,5.76,2.78-.5,1.53,12.44-2,.75Zm-11.45,20,12.09-4.47L26.86,76l-11.5,5ZM11.57,84.9l2.58-1.12L18.5,95.55l-1.8,1.2ZM5,107l10.77-7.1.86,2-10,7.5Zm-1.18,7.1,2.26-1.69L13,122.84l-1.48,1.58Zm-1.27,23,8.8-9.42,1.3,1.74-8,9.61ZM3,144.29l1.81-2.16,9.15,8.55-1.07,1.88ZM7.06,167l6.39-11.18,1.66,1.39-5.6,11.17Zm2.07,6.87,1.27-2.53,10.87,6.22-.61,2.08ZM18.31,195,22,182.64l1.93,1L21,195.8Zm3.59,6.19.65-2.74,7.89,2.33-.26,2.37Zm9.17,13,.93-8.44,2.32.55-.45,8.2Zm4.63,5.47.16-2.82,2.66.29v2.68Zm4.93,5.21V222l8.2.45.29,2.36Zm11.91,10.55-1-8.44H53.9l1.45,8.09Zm5.77,4.26-.5-2.78,12.44-1.53.75,2Zm20,11.43L73.87,239l2.12-.38,5,11.48Zm6.58,2.83-1.12-2.59L95.56,247l1.2,1.8ZM107,260.46l-7.13-10.73,2-.86,7.5,10Zm7.06,1.23-1.69-2.27,10.44-6.94,1.59,1.49Zm23,1.25-9.41-8.8,1.73-1.29,9.6,8Zm7.15-.42-2.17-1.82,8.56-9.15,1.89,1.08ZM167,258.45l-11.18-6.4,1.39-1.66L168.38,256Zm6.87-2.08-2.52-1.26,6.22-10.87,2.07.61ZM195,247.2l-12.36-3.65,1-1.93,12.19,2.88Zm6.19-3.6-2.73-.65,2.33-7.89,2.36.26Zm13-9.18-8.46-.93.55-2.31,8.22.45Zm5.46-4.62-2.8-.15.29-2.66h2.66Zm5.2-4.93H222l.45-8.2,2.36-.29Zm10.56-11.92L227,214v-2.4l8.1-1.45Zm4.25-5.76-2.76.5-1.53-12.43,2-.75Zm11.45-20L239,191.63l-.38-2.13,11.49-5Zm2.81-6.59-2.57,1.12L247,169.95l1.79-1.19Zm6.54-22.11-10.74,7.14-.86-2,10-7.5Zm1.22-7.06-2.26,1.69-6.94-10.44,1.48-1.58Zm-7.54-13.62-1.29-1.73,8-9.61,2.06,1.92Z" transform="translate(0.02 0.016)" fill="url(#a)"/><path d="M196.65,117.7,203,100.62l-16.94-6.31-.64-18.08-18.08.64-7.5-16.46-16.46,7.5L130.16,55.55,117.71,68.87,100.62,62.5l-6.31,17-18.06.64.64,18.08-16.47,7.49,7.49,16.47L55.55,135.35,68.88,147.8l-6.36,17.09,17,6.3.64,18.08,18.07-.64,7.5,16.46,16.47-7.5L135.35,210l12.46-13.32L164.9,203l6.3-17,18.08-.64-.64-18.08,16.47-7.5-7.5-16.46L210,130.15Zm-6.42,36.56-13.08,5.95.52,14.38-14.36.5-5,13.46-13.58-5-9.89,10.58-10.5-9.82-13.08,6-5.95-13.08-14.36.51-.51-14.36-13.47-5L82,144.7l-10.59-9.9,9.8-10.49-5.95-13.08,13.08-6-.51-14.37,14.36-.5,5-13.48L120.81,82l9.88-10.58,10.5,9.82,13.08-6,5.95,13.08,14.36-.51.51,14.36,13.47,5-5,13.58,10.58,9.89-9.82,10.49Z" transform="translate(0.02 0.016)" fill="url(#b)"/><path d="M165.61,130.68c-.87-.45-1.81-.89-2.79-1.31q.86-.63,1.64-1.26c4.09-3.35,6.78-6.49,6.88-9.79a4.54,4.54,0,0,0-.34-1.78c-1.34-2.83-4.63-3.6-8.62-3.64a38.779,38.779,0,0,0-6.49.65A29.42,29.42,0,0,0,158,104c0-2.34-.59-4.47-2.36-5.66a4.76,4.76,0,0,0-2.68-.76c-3.33.13-7.36,2.56-11.58,6.58-.28-1.18-.58-2.31-.91-3.35-1.74-5.15-3.9-9-7.7-9.17-3.57.21-5.7,3.59-7.38,8.29-2.79-2.83-5.44-4.62-8.13-4.7a4.49,4.49,0,0,0-2,.43c-2.59,1.29-3.32,4.3-3.34,7.87a36.331,36.331,0,0,0,.88,7.31,30.68,30.68,0,0,0-9.09-1.75c-2.58,0-4.88.63-6.1,2.58a4.58,4.58,0,0,0-.67,2.49c.14,3.38,2.74,7.4,7,11.55-1.13.31-2.21.63-3.21,1-5.09,1.9-8.8,4.15-9,7.91v.21c.29,3.47,3.75,5.45,8.37,7a42.774,42.774,0,0,0,4.64,1.15c-3.71,4.21-5.93,8.19-6,11.44a4.83,4.83,0,0,0,.86,2.87c1.16,1.61,3.13,2.16,5.27,2.16A28.5,28.5,0,0,0,115,156.89a40.65,40.65,0,0,0-.4,5.32c0,4.5.86,8.13,4,9.47a4.55,4.55,0,0,0,1.61.29c3.34-.11,6.4-2.91,9.64-7.11.47-.62.93-1.29,1.4-2,.41.85.83,1.68,1.26,2.44,2.69,4.65,5.41,7.87,8.92,8a4.439,4.439,0,0,0,.95-.09c4.36-1.34,5.52-7,5.69-14.3,4.19,2.5,8,3.92,11,4h0a5.35,5.35,0,0,0,4-1.48,5.28,5.28,0,0,0,1.34-3.76c-.06-3.09-1.68-7-4.48-11.32a32.43,32.43,0,0,0,8.3-1.33c2.82-.93,5.07-2.37,5.59-4.86a4.738,4.738,0,0,0,.06-.8C173.67,135.85,170.36,133.22,165.61,130.68Zm-10.88,8.9a22.748,22.748,0,0,1-1.18,3c-.15.32-.3.65-.46,1a22.56,22.56,0,0,1-8.22,8.79c-.3.19-.59.38-.9.55a23.41,23.41,0,0,1-8.55,2.76,23.133,23.133,0,0,1-2.66.17h-1.52a23.088,23.088,0,0,1-3.11-.39,23.47,23.47,0,0,1-8.57-3.71l-.61-.45a22.28,22.28,0,0,1-6.29-7.18,22.883,22.883,0,0,1-1.36-2.93l-.2-.54a22.741,22.741,0,0,1-.87-3,23.081,23.081,0,0,1-.49-4.73,13.2,13.2,0,0,1,.1-2,22.889,22.889,0,0,1,.5-3.14,2.361,2.361,0,0,1,.11-.44,22.62,22.62,0,0,1,4.44-8.9,23.1,23.1,0,0,1,2.19-2.31l.32-.29a20.68,20.68,0,0,1,5.41-3.62,21.19,21.19,0,0,1,6.8-2,23.079,23.079,0,0,1,3.12-.24h0a24.84,24.84,0,0,1,6.29.9l.61.17a23.77,23.77,0,0,1,8.24,4.69,23.117,23.117,0,0,1,2.24,2.25l.53.63a22.89,22.89,0,0,1,4.82,11.29c0,.32.09.64.12,1,.06.69.11,1.39.11,2.1a6.764,6.764,0,0,1-.06,1.1,23,23,0,0,1-.9,5.47Zm7.6-23.87h.05c3.71,0,5.75,1,6,1.92a1.7,1.7,0,0,1,.12.67c.1,1.45-1.93,4.54-5.83,7.6-.74.6-1.56,1.2-2.42,1.8a27.82,27.82,0,0,0-4.77-11.25,36.621,36.621,0,0,1,6.85-.74Zm-9.56-15.34h.17a2,2,0,0,1,1.12.3c.58.35,1.1,1.37,1.1,3.32a27.7,27.7,0,0,1-2.24,9.39,28,28,0,0,0-10.08-6.72c4.16-3.96,7.83-6.28,9.93-6.29Zm-25,1.29c1.51-5,3.85-7.43,5-7.22,1.16-.21,3.5,2.24,5,7.22a38.638,38.638,0,0,1,1,3.77,27.77,27.77,0,0,0-9.15-.48q-1.035-1.41-2.07-2.64c.07-.21.13-.44.19-.64ZM116.48,98.2a1.75,1.75,0,0,1,.76-.16c1.4-.08,4.24,1.65,7.19,5-.27,1-.51,2.14-.74,3.29a27.9,27.9,0,0,0-8,4.33,33.512,33.512,0,0,1-.9-7.1C114.73,100.25,115.64,98.48,116.48,98.2Zm-16.7,15.95a1.84,1.84,0,0,1,.25-1c.36-.65,1.51-1.26,3.71-1.25a28.11,28.11,0,0,1,8.6,1.75,28,28,0,0,0-6.12,10.28c-4.22-4.09-6.58-7.79-6.44-9.79Zm1.2,25c-4.42-1.34-6.55-3.38-6.41-4.45v-.06h0c-.2-1.17,2.24-3.58,7.14-5.25a29.246,29.246,0,0,1,3.44-1,28,28,0,0,0,.67,12A40.31,40.31,0,0,1,101,139.1Zm3.88,17.49c-1.73,0-2.64-.46-3-1a2,2,0,0,1-.34-1.24c-.11-2.07,2-5.82,5.76-10a28.05,28.05,0,0,0,7.27,9.65c-3.92,1.65-7.34,2.56-9.69,2.54Zm22.68,6.58c-2.94,4-6,6.1-7.39,6a1.7,1.7,0,0,1-.61-.1c-1-.23-2.19-2.62-2.15-6.84a38.519,38.519,0,0,1,.5-5.77,27.79,27.79,0,0,0,11.49,4.07c-.61.88-1.23,1.78-1.84,2.59Zm14.16,7.35a1.78,1.78,0,0,1-.34,0c-1.28.15-4-2.14-6.46-6.59-.55-1-1.1-2.08-1.63-3.25a27.83,27.83,0,0,0,11.92-2.9c0,.23,0,.46,0,.68.15,7.35-1.96,12-3.49,12.01Zm19.84-12.82a2.46,2.46,0,0,1-.56,1.81,2.62,2.62,0,0,1-2,.61c-2.32.06-6.16-1.47-10.56-4.22a28.11,28.11,0,0,0,8.41-9c3.08,4.5,4.78,8.43,4.71,10.76Zm9.46-18c-.09.75-1.19,1.87-3.69,2.67a32,32,0,0,1-8.77,1.24,27.89,27.89,0,0,0,2.19-10.87q0-.615,0-1.23c1.3.53,2.51,1.09,3.61,1.66,4.56,2.28,6.88,5,6.71,6.22a2.415,2.415,0,0,1-.05.28Z" transform="translate(0.02 0.016)" fill="url(#c)"/><path d="M150.14,128.22,149,127.1l-.77-.77v-9.07h-9.07l-.7-.7-2.3-2.3-1.8-1.8-.18-.18-1.44-1.44-1.61,1.61-4.68,4.68-.12.12h-9.07v9.07h0l-3.7,3.7-2,2-.73.73,2.29,2.29,2,2,1.52,1.52.64.64v9.07h9.07l1.54,1.54,2.15,2.15,2.7,2.7h0l4.1-4.1,1.26-1.26.21-.21.5-.5.34-.34h9.07v-9.07l.09-.09,1.14-1.14,1.86-1.86.12-.12,3.22-3.22-1-1Zm-7.55,14.37h-5.76l-.87.87-.52.52-.13.13-.56.56-.18.18-1.8,1.8h0l-.27-.27-.52-.52-1.46-1.46-.6-.6-.39-.39-.52-.52-.32-.32h-5.76v-5.76l-1.15-1.15-.26-.26-.78-.78h0l-1-1-.84-.84.65-.65,1-1,.5-.5,1.59-1.59.11-.11.2-.2v-5.76h5.76l.07-.07.61-.61.62-.62.93-.93.44-.44.93-.93.44-.44h0l.13.13,1.87,1.87h0l1.12,1.12.06.06.89.89h5.76v5.76l.13.13.07.07.58.58.4.4.27.27,1.72,1.72.35.35.56.56-.75.75-.49.49-1.24,1.24-.31.31-.48.48-.3.3-.27.27-.23.23v5.76Z" transform="translate(0.02 0.016)" fill="url(#d)"/><path d="M142.47,132.55l-.09-.09-.07-.07-.25-.25-1.62-1.62-.59-.59-.09-.09v-4.1h-4.1l-.5-.5-1-1-.43-.43-.6-.6-.2-.2-.22-.22-.4.4-.11.11-.3.3-.21.21-.06.06-.14.14-1.68,1.68h-4.1v4.1l-.08.08-1.22,1.22-.43.43-.12.12-.76.76-.29.29.4.4.73.73.94.94h0l.8.8v4.1h4.1l.2.2.48.48,1.75,1.75.22.22h0l.19.19h0l.05-.05.06-.06.11-.11.15-.15,1.47-1.47.53-.53.54-.54h4.1v-4.1l.32-.32.89-.89.16-.16,1-1,.12-.12.18-.18.22-.22Zm-5.35,4.56h-2.55l-1.81,1.81-1.81-1.81H128.4v-2.55l-1.65-1.65-.16-.16.14-.14,1.66-1.66V128.4h2.55l1.8-1.81h0l1.81,1.81h2.55v2.55l1.81,1.81-1.81,1.81Z" transform="translate(0.02 0.016)" fill="url(#e)"/></svg>