<svg xmlns="http://www.w3.org/2000/svg" viewBox="0 0 254.74 384.02"><defs><style>.cls-1{fill:#749a77;}</style></defs><title>dua-i</title><g id="Layer_2" data-name="Layer 2"><g id="Layer_2-2" data-name="Layer 2"><path class="cls-1" d="M121.85,0c35.38,13.7,48.86,45.56,34.45,81.24a99,99,0,0,0-4.08,12c-4.4,16.87-13.21,23.19-30.41,21.56-6.09,10.26-5.93,13,1.94,21.63,9.76,10.74,12.82,24,14.47,37.8.32,2.69.61,5.39,1,8.87,23-3.7,46.38-3.17,66.81-15.71,1.91-1.17,4-2.11,6-3.13,12.71-6.49,19.31-3.47,22.22,10.69,3.49,17-1.55,31.06-15.51,41.65-20.43,15.51-42,28.79-67.39,34.71a17.93,17.93,0,0,0-3,1.38c1.53,9.68,7.1,15.64,15.93,19,17.69,6.81,35.4,13.59,53,20.59C244.48,303.18,258.77,329,253.75,358c-2.63,15.18-16.09,25.9-33,25.93q-69.73.11-139.45,0c-21.24,0-42.49.06-63.73,0C4.5,383.92-1,377.67.15,364.6c1.57-17.49,18.14-36.15,37.32-42,2.78-.84,5.63-1.48,6.74-1.77-2-9.27-5.51-18.1-5.58-27q-.47-65.95.84-131.9c.19-9.26,3.41-18.61,6.23-27.61,3.25-10.36,10.58-17.12,21-20.75a11.17,11.17,0,0,0,6-6.3c2.39-7.27,6.2-14.83-.88-22C70.58,84,70.81,81,70.55,78.84c-.93-7.9-1.38-15.88-2.71-23.71-4.22-24.8,8.62-46,32.69-53.36,1.63-.5,3.21-1.17,4.81-1.77ZM196,213.24c-2.3-4.62-4.86-8.43-6.13-12.63-2.18-7.16-6.58-7.84-13.11-6.73-13.52,2.31-27.18,3.82-40.76,5.83-7.17,1.06-11-2.09-11.94-8.95-.87-6.18-1.37-12.41-2.19-18.59-1.69-12.81-5.85-24.45-17.47-31.62A140.66,140.66,0,0,0,86.95,132c-15.1-6.65-24-2.88-27.94,13.26a154.49,154.49,0,0,0-4.46,34c-.54,37.22-.23,74.45-.19,111.67,0,20.45,8.64,28.93,29.27,29q31.86,0,63.71,0c5.78,0,10.85,1.19,10.7,8.38-.15,6.7-4.9,7.83-10.46,7.77-8.74-.09-17.49,0-26.23,0H71.14v31.81c50.88,0,101.09.09,151.29-.08,9.07,0,14.66-5.76,15.86-14.83,2.7-20.46-7.7-38.13-27.14-45.81-15.08-6-30.05-12.25-45.39-17.43-17.3-5.84-29.95-15.63-33.7-34.7-5.15.35-9.85.75-14.55,1C96,257,79,244,74.82,223c-1.79-9-2.76-18.25-4-27.4-.75-5.37-.41-10.39,6.38-11.33,7.15-1,8.89,4,9.65,9.61,1.17,8.66,2.08,17.36,3.54,26,2,11.6,11.14,19.92,22.81,20C143.25,240,170.57,231.13,196,213.24ZM146.38,47.5l-2.7-1c-18,8-35.94,15.88-53.83,24-4.86,2.21-5.36,6.79-1.08,10.73A69.54,69.54,0,0,0,126,99c5.44.85,8.28-1.43,9.85-6.6,2.31-7.6,5.73-14.91,7.57-22.61C145.12,62.55,145.43,55,146.38,47.5Zm-8.07-16.26c-7.85-13.71-23.77-18.73-37.77-12.31C86.7,25.27,79.81,40.81,85.13,54.8ZM54.11,336.3c-19.55-.24-36.89,14.49-37.07,31H54.11ZM209,203.18c9-6.08,11.66-12.89,9.14-24L201,187.66Zm-103.72-93L90.79,103l-3.17,11.63,14.56,6.43Z"/></g></g></svg>