<svg xmlns="http://www.w3.org/2000/svg" viewBox="0 0 71.16 147.45"><defs><style>.cls-1,.cls-2{fill:none;stroke:#749a77;stroke-linecap:round;stroke-linejoin:round;}.cls-1{stroke-width:4.15px;}.cls-2{stroke-width:4.67px;}</style></defs><title>dzikir-i</title><g id="Layer_2" data-name="Layer 2"><g id="iconos"><path class="cls-1" d="M18.87,41.38A8.38,8.38,0,0,1,15,48.46a2.89,2.89,0,0,1-.28.17,8.27,8.27,0,0,1-4.22,1.15,7.47,7.47,0,0,1-1.16-.08A8.39,8.39,0,0,1,10.47,33a8.64,8.64,0,0,1,1.93.21A8.41,8.41,0,0,1,18.87,41.38Z"/><path class="cls-1" d="M22.21,56.77A8.37,8.37,0,0,1,18,64a8.25,8.25,0,0,1-4.22,1.15,8.39,8.39,0,1,1,0-16.79h0a8.1,8.1,0,0,1,1.14.08c.27,0,.53.08.78.15a7,7,0,0,1,.86.25A8.39,8.39,0,0,1,22.21,56.77Z"/><path class="cls-1" d="M32,71.35a8.39,8.39,0,1,1-8.4-8.4c.26,0,.52,0,.78,0a7.3,7.3,0,0,1,1.15.19A8.39,8.39,0,0,1,32,71.35Z"/><path class="cls-1" d="M22.21,24.59a8.42,8.42,0,0,1-4.16,7.26c-.17.1-.33.18-.51.27a8.27,8.27,0,0,1-3.72.88,7.77,7.77,0,0,1-.91-.05,8.39,8.39,0,1,1,9.3-8.35Z"/><path class="cls-1" d="M33.35,10.47a8.37,8.37,0,0,1-4.16,7.24A8.3,8.3,0,0,1,25,18.86,8.39,8.39,0,0,1,25,2.07a8.22,8.22,0,0,1,1.94.23,7.76,7.76,0,0,1,1.55.54,8.5,8.5,0,0,1,.85.44,8.39,8.39,0,0,1,4,6.65C33.34,10.11,33.35,10.28,33.35,10.47Z"/><path class="cls-1" d="M50.14,10.47a8.31,8.31,0,0,1-.37,2.45h0a8.45,8.45,0,0,1-2.09,3.47,8.43,8.43,0,0,1-5.94,2.46A8.39,8.39,0,0,1,37,3.55a8.31,8.31,0,0,1,4.75-1.48,8.18,8.18,0,0,1,1.93.23A8.39,8.39,0,0,1,50.14,10.47Z"/><path class="cls-1" d="M64.1,18.86a8.39,8.39,0,1,1-16.79,0,7.13,7.13,0,0,1,.05-.94,7.4,7.4,0,0,1,.32-1.52,8.39,8.39,0,0,1,2.09-3.47h0a8.4,8.4,0,0,1,5.94-2.45l.54,0a7.87,7.87,0,0,1,1.39.21A8.38,8.38,0,0,1,64.1,18.86Z"/><path class="cls-1" d="M69.08,35.65a8.35,8.35,0,0,1-5.28,7.79,7.24,7.24,0,0,1-.82.28,8.61,8.61,0,0,1-2.3.32,8.39,8.39,0,0,1,0-16.79,7.85,7.85,0,0,1,1.93.23A8.4,8.4,0,0,1,69.08,35.65Z"/><path class="cls-1" d="M68.33,52.44a8.39,8.39,0,0,1-4.16,7.25l-.1.05A8.39,8.39,0,1,1,59.94,44a8.21,8.21,0,0,1,1.93.23A8.39,8.39,0,0,1,68.33,52.44Z"/><path class="cls-1" d="M63.27,68.48a8.37,8.37,0,0,1-4.17,7.25,7.76,7.76,0,0,1-1.08.53,8.24,8.24,0,0,1-3.15.61A8.34,8.34,0,0,1,51.14,76h0a8.3,8.3,0,0,1-3.74-3.71,8.39,8.39,0,0,1,7.48-12.2,8.56,8.56,0,0,1,1.93.23A8.4,8.4,0,0,1,63.27,68.48Z"/><path class="cls-1" d="M52.78,81a8.4,8.4,0,0,1-4.16,7.25,8.07,8.07,0,0,1-2.26.91,8.28,8.28,0,0,1-2,.24A8.39,8.39,0,0,1,36,81a1.71,1.71,0,0,1,0-.25A8,8,0,0,1,36.21,79a8.39,8.39,0,0,1,10.1-6.24A8.52,8.52,0,0,1,51.13,76h0A8.43,8.43,0,0,1,52.78,81Z"/><path class="cls-1" d="M40.41,88.13c0,.08,0,.17,0,.25A8.39,8.39,0,1,1,32,79.73a8.26,8.26,0,0,1,1.93.23,8.14,8.14,0,0,1,2,.78A8.39,8.39,0,0,1,40.41,88.13Z"/><path class="cls-2" d="M45.66,106.51v32.33h-21V106.51A10.51,10.51,0,0,1,37.78,96.33h0A10.51,10.51,0,0,1,45.66,106.51Z"/><rect class="cls-2" x="24.65" y="138.84" width="21.02" height="6.28"/><line class="cls-2" x1="24.65" y1="113.8" x2="44.38" y2="113.8"/></g></g></svg>