<svg xmlns="http://www.w3.org/2000/svg" viewBox="0 0 400.18 400.27"><defs><style>.cls-1{fill:#749a77;}</style></defs><title>nabi-saw-i</title><g id="Layer_2" data-name="Layer 2"><g id="Layer_1-2" data-name="Layer 1"><path class="cls-1" d="M400.18,203.12C382.4,221,364.47,238.79,347,257a18.52,18.52,0,0,0-4.78,11.36c-.47,20.3-.17,40.61-.24,60.92,0,9.9-2.62,12.47-12.56,12.51-20,.07-40.1.21-60.14-.1-5.43-.08-9.15,1.67-12.89,5.49q-23.47,24-47.48,47.52c-7.66,7.52-9.77,7.44-17.45-.13-16.13-15.9-31.93-32.14-48.27-47.83A18.54,18.54,0,0,0,131.78,342c-20-.46-40.09-.18-60.14-.23-10.84,0-13.21-2.43-13.23-13.4,0-19.79-.2-39.58.11-59.36.09-5.44-1.68-9.17-5.49-12.9-16-15.64-31.78-31.55-47.6-47.4-7.26-7.28-7.24-10.18.05-17.5,16-16,32.2-31.88,47.91-48.18a18.5,18.5,0,0,0,4.78-11.36c.47-20.3.17-40.61.24-60.92,0-9.94,2.58-12.5,12.51-12.53,20.31-.07,40.62.23,60.92-.24a18.52,18.52,0,0,0,11.37-4.75C161.4,35.73,179.17,17.79,197.06,0h6.25C221.22,17.78,239,35.7,257.17,53.19A18.52,18.52,0,0,0,268.52,58c20.29.47,40.61.17,60.91.24,9.92,0,12.49,2.6,12.52,12.53.07,20.31-.23,40.62.24,60.91A18.52,18.52,0,0,0,347,143c17.49,18.18,35.41,36,53.19,53.85Zm-325,121.82c20.42,0,39.91.27,59.38-.13,7.62-.16,13.15,2.18,18.49,7.71,15.31,15.88,31.2,31.22,47.14,47,2.12-2,4-3.69,5.83-5.49,14.54-14.54,28.85-29.32,43.75-43.48a21.39,21.39,0,0,1,12.86-5.37c16.64-.61,33.31-.23,50-.23h12.49c0-18,.75-34.94-.24-51.77-.77-13,2.93-22.51,12.84-31.31,14.71-13.05,28-27.67,42.23-41.89-15.9-15.95-31.05-31.68-46.85-46.72-6-5.74-8.35-11.73-8.11-19.89.49-16.91.17-33.84.18-50.76,0-2.46,0-4.93,0-7.64-21.8,0-42.36.28-62.9-.23a20.23,20.23,0,0,1-12.21-5.11c-12-11.19-23.36-23-34.88-34.68-4.87-4.94-9.54-10.07-14.42-15.24-15.85,15.78-31,30.09-45.16,45.3-7,7.5-14.33,10.61-24.54,10.22-18.37-.71-36.79-.2-55.87-.2,0,3.3,0,5.84,0,8.38,0,16.66-.31,33.33.18,50,.24,8.14-2,14.2-8.09,19.91-14.4,13.56-28.15,27.8-42.13,41.8-1.58,1.58-3,3.35-4.51,5.12,15.17,15.19,29.5,30.33,44.76,44.48,7.58,7,10.42,14.46,10,24.63C74.73,287.5,75.23,305.72,75.23,324.94Z"/><path class="cls-1" d="M205.42,246.21c2.42-17.59,14.8-27.66,29.89-38.59H204.63c-4,0-8.22.74-11.92-.32-2.84-.82-6.49-3.59-7.07-6.12s1.57-7.13,3.84-8.34c8.13-4.31,16.85-7.49,25.29-11.23,8.66-3.83,17.26-7.81,26.59-12.05-2.7-4.25-5.42-8-7.58-12-6.12-11.46-3.62-19.72,8.13-25.06,17.12-7.78,33.65-5.7,49.05,4.71,6.68,4.51,7.94,10.83,2.22,16.59-7,7-15.08,12.94-23.17,18.69-5.25,3.73-11.28,6.39-17.05,9.36-5.44,2.8-11,5.38-16.22,9.37,10.62,0,21.24.08,31.86,0,5.19-.06,9.8.89,10.87,6.77s-3.39,7.74-7.91,10c-12.85,6.54-26.12,12.64-37.84,20.89-13.44,9.47-14.1,16.34-8.21,31.48,1,2.5.69,7.38-.92,8.54-2.47,1.8-7.16,2.73-9.91,1.6-14.75-6.07-27.25-15.57-38.16-27.18-1.69-1.8-3.4-3.57-4.72-4.94-7.57,7.1-14.66,14.08-22.15,20.6A40.17,40.17,0,0,1,139.39,265c-16.68,7.31-34.85-4.29-34.9-22.54,0-2.53,2.68-6.56,4.91-7.21,2.65-.77,6.21,1.18,9.22,2.36.86.34,1.19,2.1,1.68,3.24,5.53,13,8.92,13.88,20.12,5.28a39.84,39.84,0,0,0,5.1-4.41c4.74-5.13,12-9.85,13.22-15.76,1.09-5.33-4.64-12-7.15-18.14-4.89-12-9.72-24-14.4-36.08-2.09-5.39-1.15-10.18,5-12s8.58,2.47,10.15,7.31c5.78,17.88,12.11,35.61,24,50.48,8.32,10.45,17.77,20,26.71,30Zm73.45-98c-11.66-5.35-21.49-5.55-32.37.14l10.31,13.72Z"/></g></g></svg>