<svg xmlns="http://www.w3.org/2000/svg" viewBox="0 0 430.19 250.59"><defs><style>.cls-1{fill:#749a77;}</style></defs><title>quran-i</title><g id="Layer_2" data-name="Layer 2"><g id="Layer_1-2" data-name="Layer 1"><path class="cls-1" d="M430.19,47.66c-1,2.85-2.1,5.69-3.07,8.57-6.42,19.1-18.56,32.94-37.36,40.65Q343.21,116,296.64,135c-3.53,1.45-7,3-12.28,5.21,11.47,5.25,21.23,9.74,31,14.18,21.5,9.75,27,17.73,28,42.41,4.78,0,9.67-.11,14.54,0,16.06.45,26.74,11,27.25,26.9.17,5.32,0,10.64,0,16,.12,7.41-3.79,10.69-10.86,10.86-1.68,0-3.36,0-5,0H61c-14.35,0-16-1.66-16-15.76,0-3.36-.05-6.72,0-10.08.37-17.11,10.78-27.54,27.9-27.91,4.43-.1,8.86,0,13.91,0,.13-2.8.28-4.94.32-7.07.24-14.59,7.18-25.11,20-31.54,12.14-6.1,24.58-11.62,38-17.94-3.19-1.52-5.29-2.65-7.48-3.55q-47.75-19.5-95.52-39C15.2,86.71-.93,62.34,0,34.12A31.64,31.64,0,0,1,2.19,23.54c2.19-5.42,6.17-7.71,12.11-5,7.83,3.58,15.74,7,24.11,10.67C43.8,21,48.63,12.76,54.35,5.24c2-2.62,6.44-5.37,9.36-5,26.05,3.43,52.12,6.93,78,11.62,27.9,5.06,51.9,18.59,73.19,37.61,5.26-4.13,10.17-8.21,15.31-12,26.6-19.54,57-27.5,89.42-30.17,14.73-1.21,29.32-4.28,43.89-7,6.12-1.14,10,.35,13.24,5.77,4.53,7.69,9.71,15,15,23.11,6.52-2.9,12.83-5.69,19.12-8.5,12-5.37,13.38-4.9,19.33,6.74Zm-54.87-11c-2.57-3.95-5-7-6.73-10.47-2.9-5.7-6.27-7.57-13.23-6A281.89,281.89,0,0,1,318,25.8C283.4,29,251.73,38.87,226.31,64.11c-9.9,9.83-12,9.72-22.06.12-18-17.24-38.7-29.59-63.45-33.89-23.41-4.07-47-7.4-70.47-10.81C68.64,19.29,66,20.62,65,22c-3.48,4.59-6.44,9.56-9.65,14.46,1.44.87,2.12,1.38,2.87,1.72,50.7,22.88,101.37,45.85,152.22,68.41,3.19,1.41,8.24.72,11.64-.78,30.68-13.55,61.19-27.51,91.75-41.34Zm36.59,3c-3.93,1.71-6.48,2.8-9,3.93Q294.27,92.43,185.66,141.31c-23.95,10.82-47.63,22.21-71.45,33.33-7.91,3.69-10.92,9.65-8.82,18.88,3.51-1.29,6.61-2.33,9.64-3.57q61-24.88,121.89-49.81c47.61-19.46,95.19-39,142.86-58.33C398.26,74.32,409.09,61.28,411.91,39.67ZM63.39,232H366.8c1.83-14.15-.92-17.55-14-17.55q-137.76,0-275.53,0C64.23,214.47,61.45,217.94,63.39,232ZM193.18,118.9,18.81,40.26c.26,18,11.18,33,29.38,40.57q57.7,23.9,115.64,47.21a11.76,11.76,0,0,0,7.79.45C178.39,125.95,184.88,122.67,193.18,118.9Zm86.28,77.62.35-1.62c-20.63-8.43-41.22-17-62-25.12-2.19-.86-5.44-.11-7.83.84-15.59,6.16-31.08,12.56-46.6,18.91-4.45,1.82-8.87,3.71-13.31,5.56l.54,1.43ZM239.83,159.2,325,193.87c1-10.53-3-16.75-11.22-20.48-12.95-5.85-26.55-10.58-38.7-17.78C262.29,148,252.06,152.18,239.83,159.2Z"/></g></g></svg>