<svg xmlns="http://www.w3.org/2000/svg" viewBox="0 0 97.11 140.31"><defs><style>.cls-1,.cls-2{fill:none;stroke:#749a77;stroke-linecap:round;stroke-linejoin:round;}.cls-1{stroke-width:4.15px;}.cls-2{stroke-width:4.67px;}</style></defs><title>quran-2-i</title><g id="Layer_2" data-name="Layer 2"><g id="iconos"><path class="cls-1" d="M93.13,5V110.28H2.07V2.33H87.54a6.78,6.78,0,0,1,1.26.11,6.63,6.63,0,0,1,1.32.36A7.23,7.23,0,0,1,93.13,5Z"/><rect class="cls-1" x="2.07" y="16.81" width="12.11" height="93.47"/><rect class="cls-2" x="9.64" y="110.28" width="16.65" height="27.7"/><polygon class="cls-1" points="52.52 25.98 62.22 35.67 75.93 35.67 75.93 49.38 85.62 59.07 75.93 68.78 75.93 82.48 62.22 82.48 52.52 92.18 42.83 82.48 29.12 82.48 29.12 68.78 19.42 59.07 29.12 49.38 29.12 35.67 42.83 35.67 52.52 25.98"/><polygon class="cls-1" points="52.52 36.95 59.01 43.43 68.17 43.43 68.17 52.6 74.66 59.07 68.17 65.56 68.17 74.73 59.01 74.73 52.52 81.21 46.04 74.73 36.87 74.73 36.87 65.56 30.39 59.07 36.87 52.6 36.87 43.43 46.04 43.43 52.52 36.95"/><path class="cls-2" d="M94.78,9.57a7.25,7.25,0,0,1-7.24,7.24H14.19V2.33H87.54A7.2,7.2,0,0,1,93.13,5,7.17,7.17,0,0,1,94.78,9.57Z"/><line class="cls-1" x1="19.42" y1="10.33" x2="82.67" y2="10.33"/></g></g></svg>