<svg xmlns="http://www.w3.org/2000/svg" viewBox="0 0 130.8 103.07"><defs><style>.cls-1,.cls-2{fill:none;stroke:#749a77;stroke-linecap:round;stroke-linejoin:round;}.cls-1{stroke-width:4.67px;}.cls-2{stroke-width:4.15px;}</style></defs><title>tafsir-2-i</title><g id="Layer_2" data-name="Layer 2"><g id="iconos"><polyline class="cls-1" points="128.47 7.45 128.47 100.73 65.4 100.73 65.4 7.45"/><path class="cls-1" d="M65.4,7.45c43.69-11.5,63.07,0,63.07,0V17.84"/><polyline class="cls-1" points="65.4 7.45 65.4 100.73 2.33 100.73 2.33 7.45"/><line class="cls-2" x1="12.94" y1="34.33" x2="51.45" y2="34.33"/><line class="cls-2" x1="12.94" y1="50.67" x2="51.45" y2="50.67"/><line class="cls-2" x1="12.94" y1="66.16" x2="51.45" y2="66.16"/><path class="cls-2" d="M122.29,60a23,23,0,0,1-.8,2.58l-.07.18-.07.17a24.25,24.25,0,0,1-8.62,11,24.68,24.68,0,0,1-3.61,2.11A24.35,24.35,0,1,1,90.29,31.23l.48-.18a24.58,24.58,0,0,1,7.45-1.31h.61a18.15,18.15,0,0,0-1.77.79,20,20,0,0,0,17.78,35.8,19.24,19.24,0,0,0,2.9-1.75A19.69,19.69,0,0,0,122.29,60Z"/><polygon class="cls-2" points="109.56 50.23 111.33 57.72 104.75 53.72 98.18 57.72 99.95 50.23 94.1 45.21 101.79 44.58 101.92 44.25 102.48 42.92 104.75 37.47 106.08 40.64 107.72 44.58 111.38 44.88 115.4 45.21 110.67 49.27 109.86 49.97 109.56 50.23"/><path class="cls-1" d="M65.4,7.45c-43.69-11.5-63.06,0-63.06,0V17.84"/></g></g></svg>