<svg xmlns="http://www.w3.org/2000/svg" viewBox="0 0 142.91 122.46"><defs><style>.cls-1,.cls-2{fill:#fff;}.cls-1,.cls-2,.cls-3{stroke:#749a77;stroke-linecap:round;stroke-linejoin:round;}.cls-1,.cls-3{stroke-width:4.15px;}.cls-2{stroke-width:4.67px;}.cls-3{fill:none;}</style></defs><title>tafsir-i</title><g id="Layer_2" data-name="Layer 2"><g id="iconos"><polygon class="cls-1" points="47.98 59.74 47.98 100.97 19.49 100.97 19.49 82.41 38.49 65.39 39.52 64.77 44.24 61.97 47.98 59.74"/><path class="cls-1" d="M41.46,101"/><polyline class="cls-1" points="52.75 60.8 33.74 46.22 19.49 51.64 14.74 64.53 12.81 71.52 19.49 82.41 19.49 91.07 19.49 99.29 19.49 100.97"/><path class="cls-1" d="M43.24,62V37a4.75,4.75,0,0,1,9.5,0V62"/><path class="cls-1" d="M52.74,55.85l0,0V70A18.59,18.59,0,0,1,48,82.41a19.06,19.06,0,0,1-12.62,6.28c-.54,0-1.08.07-1.63.07"/><path class="cls-1" d="M36.73,83.57"/><line class="cls-1" x1="14.72" y1="60.8" x2="14.72" y2="69.97"/><path class="cls-1" d="M24.24,62V37.58a4.75,4.75,0,1,0-9.5,0V62"/><path class="cls-1" d="M33.74,62v-33a4.75,4.75,0,0,0-9.49,0V62"/><path class="cls-1" d="M33.74,62V30.82a4.75,4.75,0,1,1,9.5,0V62"/><rect class="cls-1" x="17.43" y="92.48" width="32.39" height="16.98"/><polyline class="cls-1" points="20.33 103 14.5 103 14.5 119.99 52.75 119.99 52.75 103 47.23 103"/><path class="cls-1" d="M20.08,65.27,10.38,54.59a4.75,4.75,0,0,0-6.71-.4h0a4.74,4.74,0,0,0-.39,6.7L15.2,74.18a35.53,35.53,0,0,0,4,6.9"/><polygon class="cls-1" points="94.92 60.15 94.92 101.39 123.42 101.39 123.42 82.82 104.42 65.8 103.38 65.18 98.67 62.38 94.92 60.15"/><path class="cls-1" d="M101.44,101.39"/><polyline class="cls-1" points="90.16 61.22 109.17 46.63 123.42 52.06 128.16 64.94 130.1 71.93 123.42 82.82 123.42 91.48 123.42 99.7 123.42 101.39"/><path class="cls-1" d="M99.67,62.38v-25a4.75,4.75,0,0,0-9.5,0v25"/><path class="cls-1" d="M90.17,56.26l0,0V70.38a18.6,18.6,0,0,0,4.77,12.44,19.07,19.07,0,0,0,12.62,6.28c.54,0,1.08.06,1.62.06"/><path class="cls-1" d="M106.18,84"/><line class="cls-1" x1="128.19" y1="61.22" x2="128.19" y2="70.38"/><path class="cls-1" d="M118.67,62.38V38a4.75,4.75,0,1,1,9.5,0V62.38"/><path class="cls-1" d="M109.17,62.38v-33a4.75,4.75,0,0,1,9.5,0v33"/><path class="cls-1" d="M109.17,62.38V31.23a4.74,4.74,0,0,0-4.74-4.74,4.37,4.37,0,0,0-.89.08,4.74,4.74,0,0,0-3.86,4.66V62.38"/><rect class="cls-1" x="93.09" y="92.9" width="32.39" height="16.98"/><polyline class="cls-1" points="122.57 103.42 128.42 103.42 128.42 120.39 90.16 120.39 90.16 103.42 95.68 103.42"/><path class="cls-1" d="M122.82,65.68,132.53,55a4.75,4.75,0,0,1,6.71-.39h0a4.74,4.74,0,0,1,.4,6.7L127.71,74.59a34.84,34.84,0,0,1-4,6.9"/><polyline class="cls-1" points="119.64 6.2 119.64 76.74 71.95 76.74 71.95 6.2"/><path class="cls-1" d="M72,6.2c33-8.7,47.69,0,47.69,0v7.86"/><polyline class="cls-2" points="71.95 6.2 71.95 76.74 24.26 76.74 24.26 6.2"/><line class="cls-1" x1="32.28" y1="26.53" x2="61.41" y2="26.53"/><line class="cls-1" x1="32.28" y1="38.88" x2="61.41" y2="38.88"/><line class="cls-1" x1="32.28" y1="50.6" x2="61.41" y2="50.6"/><path class="cls-2" d="M72,6.2c-33-8.7-47.69,0-47.69,0v7.86"/><polygon class="cls-3" points="112.63 38.88 107.45 44.07 107.45 51.41 100.11 51.41 98.43 53.09 94.92 56.6 89.74 51.41 82.4 51.41 82.4 44.07 77.21 38.88 82.4 33.7 82.4 26.35 89.74 26.35 94.92 21.17 98.43 24.67 100.11 26.35 107.45 26.35 107.45 33.7 112.63 38.88"/></g></g></svg>